<?xml version="1.0" encoding="UTF-8" standalone="no"?>
<!DOCTYPE svg PUBLIC "-//W3C//DTD SVG 1.1//EN" "http://www.w3.org/Graphics/SVG/1.1/DTD/svg11.dtd">
<svg width="100%" height="100%" viewBox="0 0 512 512" version="1.1" xmlns="http://www.w3.org/2000/svg" xmlns:xlink="http://www.w3.org/1999/xlink" xml:space="preserve" xmlns:serif="http://www.serif.com/" style="fill-rule:evenodd;clip-rule:evenodd;stroke-miterlimit:1.5;">
    <g transform="matrix(3.30323,0,0,3.73723,0,-1.23222e-13)">
        <rect x="0" y="0" width="155" height="137"/>
    </g>
    <g transform="matrix(3.30323,0,0,3.30323,13.2129,41.2903)">
        <path d="M-0,5.669L141.732,5.669L141.732,124.724L5.669,124.724L5.669,76.535" style="fill:none;stroke:white;stroke-width:11.34px;"/>
    </g>
    <g transform="matrix(3.30323,0,0,3.30323,13.2129,41.2903)">
        <path d="M30.273,110.551L0,18.85L14.665,18.85L35.56,88.649L35.812,88.649L56.707,18.85L71.372,18.85L41.099,110.551L30.273,110.551Z" style="fill:white;fill-rule:nonzero;"/>
    </g>
    <g transform="matrix(3.30323,0,0,3.30323,13.2129,41.2903)">
        <path d="M75.589,110.551L75.589,98.215L111.464,53.34C112.848,51.578 113.751,49.963 114.17,48.494C114.59,47.025 114.8,45.599 114.8,44.214C114.8,41.025 113.667,38.057 111.401,35.308C109.135,32.56 106.051,31.186 102.149,31.186C98.582,31.186 95.53,32.371 92.991,34.742C90.453,37.113 89.037,40.354 88.743,44.466L75.589,44.466C75.631,37.039 78.169,30.777 83.204,25.679C88.24,20.581 94.219,18.032 101.142,18.032C108.778,18.032 115.146,20.602 120.244,25.742C125.342,30.882 127.891,37.081 127.891,44.34C127.891,50.55 126.066,55.921 122.415,60.452L92.897,97.46L127.891,97.46L127.891,110.551L75.589,110.551Z" style="fill:white;fill-rule:nonzero;"/>
    </g>
</svg>
